<svg width="286" height="148" viewBox="0 0 286 148" fill="none" xmlns="http://www.w3.org/2000/svg">
<g opacity="0.5">
<rect x="0.5" y="0.5" width="285" height="147" stroke="#010101"/>
<g style="mix-blend-mode:luminosity" clip-path="url(#clip0)">
<path fill-rule="evenodd" clip-rule="evenodd" d="M166.14 106.109L172.1 33.9465L172.178 33H171.3H105.878H105L105.078 33.9465L111.032 106.121L111.081 106.723L111.618 106.883L138.335 114.9H138.764L165.554 106.872L166.09 106.711L166.14 106.109Z" fill="#1572B6"/>
<path fill-rule="evenodd" clip-rule="evenodd" d="M167 38.1188H138.589V109.641L161.664 102.725L167 38.1188Z" fill="#35A8DB"/>
<path fill-rule="evenodd" clip-rule="evenodd" d="M138.557 57.3332L118.518 66.3538L119.183 75.2846L138.557 66.3309L159.166 56.8072L160.021 47.6713L138.557 57.3332Z" fill="#E9E9E8"/>
<path fill-rule="evenodd" clip-rule="evenodd" d="M138.557 47.6714H138.706H138.875H139.044H139.213H139.382H139.551H139.72H139.89H140.059H140.228H140.397H140.566H140.736H140.905H141.074H141.243H141.412H141.581H141.75H141.92H142.089H142.258H142.427H142.596H142.766H142.935H143.104H143.273H143.442H143.611H143.78H143.95H144.119H144.288H144.457H144.626H144.796H144.965H145.134H145.303H145.472H145.642H145.81H145.98H146.149H146.318H146.487H146.656H146.826H146.995H147.164H147.333H147.502H147.672H147.841H148.01H148.179H148.348H148.517H148.686H148.856H149.025H149.194H149.363H149.532H149.702H149.871H150.039H150.209H150.378H150.547H150.716H150.886H151.055H151.224H151.393H151.562H151.732H151.901H152.07H152.239H152.408H152.577H152.746H152.916H153.085H153.254H153.423H153.592H153.762H153.931H154.1H154.269H154.438H154.607H154.776H154.946H155.115H155.284H155.453H155.622H155.792H155.961H156.13H156.299H156.468H156.638H156.806H156.976H157.145H157.314H157.483H157.652H157.822H157.991H158.16H158.329H158.498H158.668H158.837H159.006H159.175H159.344H159.513H159.682H159.852H160.021L159.852 49.4798L159.682 51.2879L159.513 53.096L159.344 54.9048L159.175 56.713L159.166 56.807H159.006H158.837H158.668H158.498H158.329H158.16H157.991H157.822H157.652H157.483H157.314H157.145H156.976H156.806H156.638H156.468H156.299H156.13H155.961H155.792H155.622H155.453H155.284H155.115H154.946H154.776H154.607H154.438H154.269H154.1H153.931H153.762H153.592H153.423H153.254H153.085H152.916H152.746H152.577H152.408H152.239H152.07H151.901H151.732H151.562H151.393H151.224H151.055H150.886H150.716H150.547H150.378H150.209H150.039H149.871H149.702H149.532H149.363H149.194H149.025H148.856H148.686H148.517H148.348H148.179H148.01H147.841H147.672H147.502H147.333H147.164H146.995H146.826H146.656H146.487H146.318H146.149H145.98H145.81H145.642H145.472H145.303H145.134H144.965H144.796H144.626H144.457H144.288H144.119H143.95H143.78H143.611H143.442H143.273H143.104H142.935H142.766H142.596H142.427H142.258H142.089H141.92H141.75H141.581H141.412H141.243H141.074H140.905H140.736H140.566H140.397H140.228H140.059H139.89H139.725H139.72H139.551H139.382H139.213H139.044H138.875H138.706H138.582H138.557H138.536H138.367H138.198H138.029H137.86H137.69H137.521H137.352H137.183H137.014H136.845H136.675H136.506H136.337H136.168H135.999H135.83H135.66H135.491H135.322H135.153H134.984H134.815H134.645H134.476H134.307H134.138H133.969H133.8H133.63H133.461H133.292H133.123H132.954H132.785H132.615H132.446H132.277H132.108H131.939H131.769H131.6H131.431H131.262H131.093H130.924H130.755H130.585H130.416H130.247H130.078H129.909H129.739H129.57H129.401H129.232H129.063H128.894H128.724H128.555H128.386H128.217H128.048H127.879H127.709H127.54H127.371H127.202H127.033H126.864H126.694H126.525H126.356H126.187H126.018H125.849H125.679H125.51H125.341H125.172H125.003H124.834H124.664H124.495H124.326H124.157H123.988H123.819H123.649H123.48H123.311H123.142H122.973H122.804H122.634H122.465H122.296H122.127H121.958H121.789H121.619H121.45H121.281H121.112H120.943H120.773H120.604H120.435H120.266H120.097H119.928H119.758H119.589H119.42H119.251H119.082H118.913H118.743H118.574H118.405H118.236H118.067H117.898H117.758L117.728 56.5486L117.559 55.0688L117.39 53.5895L117.221 52.1096L117.052 50.6302L116.883 49.1509L116.714 47.6714H116.883H117.052H117.221H117.39H117.559H117.728H117.898H118.067H118.236H118.405H118.574H118.743H118.913H119.082H119.251H119.42H119.589H119.758H119.928H120.097H120.266H120.435H120.604H120.773H120.943H121.112H121.281H121.45H121.619H121.789H121.958H122.127H122.296H122.465H122.634H122.804H122.973H123.142H123.311H123.48H123.649H123.819H123.988H124.157H124.326H124.495H124.664H124.834H125.003H125.172H125.341H125.51H125.679H125.849H126.018H126.187H126.356H126.525H126.694H126.864H127.033H127.202H127.371H127.54H127.709H127.879H128.048H128.217H128.386H128.555H128.724H128.894H129.063H129.232H129.401H129.57H129.739H129.909H130.078H130.247H130.416H130.585H130.755H130.924H131.093H131.262H131.431H131.6H131.769H131.939H132.108H132.277H132.446H132.615H132.785H132.954H133.123H133.292H133.461H133.63H133.8H133.969H134.138H134.307H134.476H134.645H134.815H134.984H135.153H135.322H135.491H135.66H135.83H135.999H136.168H136.337H136.506H136.675H136.845H137.014H137.183H137.352H137.521H137.69H137.86H138.029H138.198H138.367H138.536H138.557Z" fill="#E9E9E8"/>
<path fill-rule="evenodd" clip-rule="evenodd" d="M118.549 66.355H158.438L157.712 75.3875L119.214 75.2846L118.549 66.355Z" fill="#E9E9E8"/>
<path fill-rule="evenodd" clip-rule="evenodd" d="M119.795 80.3159L128.521 80.3197L129.09 87.7051L138.557 90.2426L148.276 87.2945L148.933 75.2169L157.737 75.0676L156.158 94.6852L138.589 100.229L120.892 94.5829L119.795 80.3159Z" fill="#E9E9E8"/>
<path fill-rule="evenodd" clip-rule="evenodd" d="M138.589 66.3163L159.167 56.8072L160.021 47.6713L138.589 57.3189V66.3163Z" fill="#FFFFFE"/>
<path fill-rule="evenodd" clip-rule="evenodd" d="M138.589 47.6714H138.706H138.875H139.044H139.213H139.382H139.551H139.721H139.89H140.059H140.228H140.398H140.567H140.736H140.905H141.074H141.244H141.412H141.581H141.751H141.92H142.089H142.258H142.428H142.597H142.766H142.935H143.104H143.273H143.442H143.611H143.781H143.95H144.119H144.288H144.458H144.627H144.796H144.965H145.134H145.304H145.473H145.642H145.811H145.98H146.149H146.318H146.488H146.657H146.826H146.995H147.164H147.334H147.503H147.672H147.841H148.01H148.179H148.348H148.517H148.687H148.856H149.025H149.194H149.364H149.533H149.702H149.871H150.04H150.209H150.378H150.547H150.717H150.886H151.055H151.224H151.394H151.563H151.732H151.901H152.07H152.24H152.408H152.577H152.747H152.916H153.085H153.254H153.424H153.593H153.762H153.931H154.1H154.27H154.438H154.607H154.777H154.946H155.115H155.284H155.454H155.623H155.792H155.961H156.13H156.3H156.469H156.638H156.807H156.976H157.145H157.314H157.483H157.653H157.822H157.991H158.16H158.33H158.499H158.668H158.837H159.006H159.175H159.344H159.513H159.683H159.852H160.021L159.852 49.4798L159.683 51.2879L159.513 53.096L159.344 54.9048L159.175 56.713L159.167 56.807H159.006H158.837H158.668H158.499H158.33H158.16H157.991H157.822H157.653H157.483H157.314H157.145H156.976H156.807H156.638H156.469H156.3H156.13H155.961H155.792H155.623H155.454H155.284H155.115H154.946H154.777H154.607H154.438H154.27H154.1H153.931H153.762H153.593H153.424H153.254H153.085H152.916H152.747H152.577H152.408H152.24H152.07H151.901H151.732H151.563H151.394H151.224H151.055H150.886H150.717H150.547H150.378H150.209H150.04H149.871H149.702H149.533H149.364H149.194H149.025H148.856H148.687H148.517H148.348H148.179H148.01H147.841H147.672H147.503H147.334H147.164H146.995H146.826H146.657H146.488H146.318H146.149H145.98H145.811H145.642H145.473H145.304H145.134H144.965H144.796H144.627H144.458H144.288H144.119H143.95H143.781H143.611H143.442H143.273H143.104H142.935H142.766H142.597H142.428H142.258H142.089H141.92H141.751H141.581H141.412H141.244H141.074H140.905H140.736H140.567H140.398H140.228H140.059H139.89H139.726H139.721H139.551H139.382H139.213H139.044H138.875H138.706H138.589V47.6714Z" fill="#FFFFFE"/>
<path fill-rule="evenodd" clip-rule="evenodd" d="M138.589 66.355H158.438L157.712 75.3875L138.589 75.3363V66.355Z" fill="#FFFFFE"/>
<path fill-rule="evenodd" clip-rule="evenodd" d="M138.589 90.233L148.276 87.2945L148.934 75.2169L157.737 75.0676L156.159 94.6852L138.589 100.229V100.228V90.233Z" fill="#FFFFFE"/>
</g>
</g>
<defs>
<clipPath id="clip0">
<rect width="75.7732" height="81.9" fill="white" transform="translate(105 33)"/>
</clipPath>
</defs>
</svg>
